<svg xmlns="http://www.w3.org/2000/svg" viewBox="0 0 469.668 469.668">
  <path d="M310.7 263.9s.02 0 .03-.02c13.94-1.77 23.84-14.6 22.06-28.57l-8.7-69.1c-1.6-12.7-12.6-22.3-25.4-22.3-1.1 0-2.2.1-3.3.2-6.8.9-12.8 4.3-17 9.7-4.2 5.4-6 12.1-5.1 18.9l5.5 43.8-32.6 4.1c-6.8.9-12.8 4.3-17 9.8-4.2 5.5-6 12.2-5.2 18.9 1.6 12.7 12.5 22.3 25.3 22.3 1.1 0 2.2 0 3.2-.2l58-7.2zm-1.07-8.45c-.07 0-.14.02-.2.03l-57.76 7.25c-.73.1-1.47.14-2.2.14-8.55 0-15.8-6.38-16.87-14.84-.58-4.53.64-9.02 3.43-12.64 2.8-3.7 6.82-6 11.33-6.6l36.8-4.6c2.32-.3 3.98-2.5 3.68-4.8l-6.02-48c-.58-4.5.63-9 3.4-12.6 2.77-3.6 6.78-5.9 11.3-6.5.72-.1 1.46-.2 2.18-.2 8.6 0 15.9 6.4 16.98 14.9l8.68 69.2c1.2 9.3-5.38 17.8-14.6 19h-.13z"/>
  <path d="M306.65 124.5c-2.17-.37-4.4-.55-6.62-.55-20.18 0-39.23 14.5-47.4 36.04l-2.1 5.3c-34.94 4.3-63.04 31.2-68.78 66.2-3.82 23.2 2.7 46.6 17.95 64.5l-9.83 25.3c-.46 1.2-.37 2.5.27 3.6s1.74 1.9 3 2.1l67.2 11v102.4c0 16 13.06 29.1 29.1 29.1 16.07 0 29.13-13.1 29.13-29.1v-92.7l30.83 5h.7c1.02 0 2.03-.4 2.8-1.1.97-.9 1.5-2.1 1.43-3.4l-7.83-173c-1.03-25.9-17.78-47.3-39.85-50.9zm3.42 316.06c0 7.48-4.03 14.03-10 17.64v-67.1c0-2.35-1.92-4.26-4.26-4.26s-4.2 1.9-4.2 4.25V461c-.7.07-1.4.1-2.1.1-11.3 0-20.6-9.24-20.6-20.6V339.6l41.3 6.75v94.18zM199.7 319.66l8.86-22.83c.58-1.5.27-3.2-.82-4.4-14.73-16.2-21.14-37.9-17.6-59.45 5.26-32.06 31.5-56.5 63.8-59.43 1.6-.15 3-1.2 3.58-2.7l3.04-7.82c6.94-18.3 22.8-30.58 39.47-30.58 1.77 0 3.53.14 5.25.43 18.1 2.97 31.86 21 32.72 42.9l6.66 146.83-73.12-12.6c-2.32-.4-4.52 1.2-4.92 3.5-.4 2.3 1.15 4.5 3.46 5l74.97 13 .56 12.3-145.9-23.9zM365.65 85.53c-.8-3.2-20-78.63-70.5-84.92-3.37-.4-6.28-.6-9.15-.6-10.25 0-19.4 2.6-27.92 7.9-4.56.7-21.1 3.7-26.57 14.6-2.7 5.5-2.2 11.7 1.5 18.4-5.6 11.8-7.1 25.1-4 37.8 6.3 26 29.6 43.6 55.2 43.6 4.4 0 8.8-.5 13.2-1.5 8.7-2 16.8-6.2 23.5-11.9 12.7-1.9 26.3-7.8 43.1-18.5 1.6-1 2.3-2.8 1.9-4.6zM239.1 26.28c3-5.98 13.6-8.9 19.17-9.84 5.55 4.78 26.37 23.83 34 46.78-6.17-3.63-13.47-5.76-20.63-7.84-12.64-3.66-24.58-7.13-30.87-18-2.6-4.52-3.16-8.15-1.67-11.1zm56.27 86.05c-25.87 6.2-51.96-9.8-58.16-35.67-2.2-9.32-1.6-19.03 1.7-27.92 8.3 8.38 19.9 11.76 30.4 14.8 10.6 3.06 20.5 5.96 25.8 13.2.6 8-1 16.22-5.6 24.27-.7 1.3-.7 2.8-.1 4.1.7 1.3 1.9 2.2 3.3 2.4 1.6.2 3.1.5 4.8.7 2.4.4 4.9.8 7.5 1-3 1.4-6.1 2.5-9.3 3.3zm16.24-11.4c-4.3 0-8.3-.56-12.1-1.15 8-18.3 4.5-39.3-10.1-61.14-7.8-11.76-17-20.96-22.5-25.93 5.9-2.8 12.2-4.2 19.1-4.2 2.5 0 5.1.2 8.1.6 39.6 4.9 58.5 61.9 62.5 75.6-23.2 14.4-36.2 16.3-45 16.3zm-100.5 51.7c.3.04.5.06.8.06 1.5 0 3-.9 3.7-2.3 1.4-2.5 12.9-24.2 7.1-36.3-2.4-5-7.5-8.2-13-8.2-2.2 0-4.3.5-6.3 1.4-3.5 1.7-6.1 4.7-7.3 8.2-1.5-.6-3.1-.8-4.7-.8-2.2 0-4.3.4-6.2 1.4-3.4 1.6-6 4.6-7.3 8.2-1.2 3.6-1 7.5.6 11 5.8 11.9 30.1 16.6 32.8 17zm-25.4-25.27c.5-1.5 1.6-2.7 3.1-3.38.8-.4 1.7-.6 2.6-.6 2.3 0 4.4 1.3 5.4 3.36 1.1 2.12 3.6 3 5.7 2 1.5-.75 2.4-2.27 2.4-3.85 0-.7-.1-1.3-.4-1.9-1.4-3-.2-6.5 2.8-7.9.8-.4 1.7-.6 2.6-.6 2.3 0 4.3 1.2 5.3 3.3 2.7 5.5-1.5 17.7-5.4 25.7-8.1-1.9-20.9-6.2-23.6-11.8-.7-1.4-.8-3-.26-4.5zm-49-58.24c-2.2 0-4.3.48-6.3 1.44-3.5 1.72-6.1 4.74-7.3 8.2-1.5-.5-3.1-.8-4.7-.8-2.1 0-4.2.5-6.2 1.44-7.1 3.45-10.2 12.08-6.7 19.23 5.8 11.97 30.1 16.58 32.8 17.07.3.04.5.06.8.06 1.5 0 3-.83 3.7-2.2 1.4-2.45 12.9-24.22 7.1-36.3-2.4-5.03-7.4-8.14-13-8.14zm-.1 37.58c-8-1.86-20.8-6.2-23.5-11.77-1.4-2.92-.2-6.46 2.8-7.88.8-.4 1.7-.6 2.6-.6 2.3 0 4.4 1.3 5.4 3.36 1 2.2 3.6 3.1 5.7 2 1.6-.7 2.4-2.2 2.4-3.8 0-.6-.1-1.2-.4-1.8-1.4-2.9-.1-6.5 2.8-7.9.8-.4 1.7-.6 2.6-.6 2.3 0 4.3 1.3 5.3 3.3 2.7 5.5-1.5 17.7-5.4 25.8zm61-73.72c.2-3.85-1.1-7.54-3.8-10.38-2.5-2.83-6.1-4.48-9.9-4.66-4-.18-7.6 1.26-10.3 3.72-2.6-2.82-6.1-4.47-9.9-4.65-8-.3-14.7 5.8-15.03 13.8-.6 13.3 18.54 28.9 20.73 30.6.72.6 1.7.9 2.6.9.8 0 1.6-.2 2.3-.7 2.34-1.5 22.86-15.1 23.5-28.5zM172 52.68c-6.2-5.48-15.43-15.38-15.15-21.56.15-3.15 2.74-5.62 5.9-5.62h.3c1.57.08 3.03.76 4.1 1.93 1.06 1.17 1.6 2.68 1.53 4.26v.2c0 2.2 1.78 4.1 4.05 4.2 2.36.1 4.35-1.7 4.46-4.1.1-3.3 2.8-5.8 6.1-5.7 1.6.1 3 .7 4.1 1.9 1 1.1 1.6 2.6 1.5 4.2-.3 6.1-9.8 14.8-17.1 20z"/>
</svg>
